<?xml version="1.0" standalone="no"?><!DOCTYPE svg PUBLIC "-//W3C//DTD SVG 1.1//EN" "http://www.w3.org/Graphics/SVG/1.1/DTD/svg11.dtd"><svg class="icon" height="512" viewBox="0 0 1024 1024" version="1.1" xmlns="http://www.w3.org/2000/svg"><path d="M628.374474 346.468966c14.099113 0 26.629497-5.922896 35.666314-15.124466 9.240455-9.045003 14.626115-21.585621 14.626115-35.685757 0-13.904685-5.385661-26.609031-14.626115-35.664268-9.036817-9.055237-21.567201-14.802124-35.666314-14.802124-13.738909 0-26.611078 5.747911-35.676547 14.802124-9.045003 9.055237-14.792914 21.75856-14.792914 35.664268 0 14.101159 5.747911 26.640754 14.792914 35.685757C601.762373 340.54607 614.634542 346.468966 628.374474 346.468966zM412.780231 452.450742c-16.023952-16.187681-38.290071-26.101471-62.665225-26.101471-24.356734 0-46.625924 9.91379-62.646805 26.101471l0-0.173962c-16.003486 16.187681-26.073842 38.114063-26.073842 62.820768 0 24.01495 9.738805 45.766346 24.87248 61.591777l1.201361 1.055029c16.021905 15.993253 38.290071 25.925463 62.646805 25.925463 23.867594 0 45.608757-9.397021 61.621453-25.048489l1.042749-0.876973c16.003486-16.189727 26.084075-38.290071 26.084075-62.646805 0-24.178679-9.720386-45.940308-25.048489-62.130036L412.780231 452.450742zM512 62.389956c-248.312412 0-449.610044 201.297632-449.610044 449.610044s201.297632 449.610044 449.610044 449.610044 449.610044-201.297632 449.610044-449.610044S760.312412 62.389956 512 62.389956zM487.945141 515.097548c0 26.980491-8.011464 52.380998-21.585621 73.604368l93.629447 73.096808c17.916045-16.705474 42.11519-26.990724 68.384483-26.990724 27.66406 0 52.380998 11.329023 70.462818 29.255301 18.119683 17.905812 29.077246 42.798758 29.077246 70.473051 0 27.322275-11.31879 52.204989-29.225625 69.955258l0.148379 0.349971c-18.081821 17.926278-43.140543 29.227672-70.462818 29.227672-27.302833 0-52.361555-11.301394-70.462818-29.227672-17.943674-17.924231-29.234835-42.982954-29.234835-70.305229 0-18.102287 4.860704-35.158754 13.222139-49.435922l-93.627401-73.604368-1.035586 1.231037-1.394766 1.033539c-24.727171 24.3772-58.470693 38.993083-95.725178 38.993083-37.940101 0-72.561619-15.682167-97.619318-40.026622l-1.210571-1.746784c-24.199145-24.88476-38.963407-58.636468-38.963407-95.882767 0-37.948287 15.309684-72.393797 40.175001-97.4341 25.058722-25.067932 59.679217-40.388872 97.619318-40.388872 37.948287 0 72.41324 15.319917 97.119945 40.388872l1.035586 1.035586 93.627401-73.956386c-8.361435-14.277168-13.222139-31.157627-13.222139-49.083905 0-27.496238 11.291161-52.389184 29.234835-70.305229 18.102287-18.092054 43.159986-29.215392 70.462818-29.215392 27.66406 0 52.380998 11.123338 70.462818 29.215392 18.119683 17.916045 29.077246 42.808992 29.077246 70.305229 0 27.498284-10.957563 52.380998-29.077246 70.659293-18.081821 17.740036-43.140543 29.225625-70.462818 29.225625-26.269293 0-50.468438-10.597359-68.384483-27.488051l-93.629447 73.780377C479.933677 463.058334 487.945141 488.126266 487.945141 515.097548zM628.374474 785.004791c14.099113 0 26.629497-5.913687 35.666314-14.804171l0.379647 0c8.860808-9.03477 14.246469-21.75856 14.246469-35.664268 0-14.277168-5.385661-26.805506-14.626115-35.666314-9.036817-9.426697-21.567201-14.792914-35.666314-14.792914-13.738909 0-26.611078 5.366218-35.676547 14.792914-9.045003 8.860808-14.792914 21.389146-14.792914 35.666314 0 13.729699 5.747911 26.433022 14.792914 35.664268C601.762373 779.091104 614.634542 785.004791 628.374474 785.004791z" /></svg>